<?xml version="1.0" standalone="no"?><!DOCTYPE svg PUBLIC "-//W3C//DTD SVG 1.1//EN" "http://www.w3.org/Graphics/SVG/1.1/DTD/svg11.dtd"><svg t="1637028123824" class="icon" viewBox="0 0 1024 1024" version="1.1" xmlns="http://www.w3.org/2000/svg" p-id="4282" xmlns:xlink="http://www.w3.org/1999/xlink" width="200" height="200"><defs><style type="text/css"></style></defs><path d="M814.08 113.408h49.088v790.976H814.08V113.408zM949.824 932.224c0 15.36-12.48 27.776-27.776 27.776H755.2c-15.36 0-27.776-12.48-27.776-27.776 0-15.36 12.48-27.776 27.776-27.776h166.848c15.36-0.064 27.776 12.416 27.776 27.776z" p-id="4283" fill="#ffffff"></path><path d="M789.184 113.408a0.772 0.772 0 1 0 98.816 0 0.772 0.772 0 1 0-98.816 0zM666.432 575.104l-511.36-56.32h-0.192c-43.584 0-80.704-37.184-80.704-82.88V273.408c0-45.76 37.248-83.008 83.008-83.008l530.88-58.816v32.256l-8.64 9.92c-22.4 15.168-45.632 86.976-45.632 180.8 0 93.76 23.232 165.568 45.696 180.8l8.64 5.824v32.256l-21.696 1.664z m-38.528-397.44l-468.544 51.84c-26.304 0.064-45.952 19.776-45.952 43.968v162.496c0 24.128 19.584 43.776 43.712 43.776l470.912 51.712c-22.912-44.352-33.408-114.368-33.408-176.896s10.496-132.544 33.28-176.896z" p-id="4284" fill="#ffffff"></path><path d="M684.672 576.768c-9.216 0-18.304-2.944-27.072-8.896l21.888-32.512c2.112 1.408 4.032 2.24 5.184 2.24 6.144 0 19.52-12.288 31.296-46.208 12.608-36.288 19.52-84.8 19.52-136.832 0-119.232-30.272-183.616-52.096-184.32 1.088 0.128-1.344 1.728-3.008 2.816l-22.912-31.744c7.168-4.864 15.808-10.752 27.072-10.24 66.496 2.048 90.112 121.664 90.112 223.488 0 56.256-7.68 109.44-21.696 149.696-20.736 59.904-48.576 72.512-68.288 72.512zM425.28 539.968c-111.36-210.688-3.328-366.4 1.344-372.864l31.936 22.72c-4.096 5.76-98.304 143.232 1.408 331.712l-34.688 18.432zM257.472 519.296c-98.944-187.136-2.816-325.632 1.28-331.456l32 22.72c-3.584 5.056-85.888 125.312 1.344 290.304l-34.624 18.432z" p-id="4285" fill="#ffffff"></path><path d="M756.056 259.718l105.753 57.265-16.458 30.393-105.753-57.266 16.458-30.392zM738.892 398.444l108.856-51.109 14.688 31.284-108.856 51.109-14.688-31.284z" p-id="4286" fill="#ffffff"></path></svg>